<?xml version="1.0" encoding="UTF-8" standalone="no"?>
<!-- Created with Inkscape (http://www.inkscape.org/) -->

<svg
   width="256"
   height="256"
   viewBox="0 0 256 256"
   version="1.1"
   id="svg1"
   inkscape:version="1.4.3 (1:1.4.3+202512261035+0d15f75042)"
   sodipodi:docname="icon.svg"
   xmlns:inkscape="http://www.inkscape.org/namespaces/inkscape"
   xmlns:sodipodi="http://sodipodi.sourceforge.net/DTD/sodipodi-0.dtd"
   xmlns="http://www.w3.org/2000/svg"
   xmlns:svg="http://www.w3.org/2000/svg">
  <sodipodi:namedview
     id="namedview1"
     pagecolor="#505050"
     bordercolor="#eeeeee"
     borderopacity="1"
     inkscape:showpageshadow="0"
     inkscape:pageopacity="0"
     inkscape:pagecheckerboard="0"
     inkscape:deskcolor="#505050"
     inkscape:document-units="px"
     inkscape:zoom="2"
     inkscape:cx="96.5"
     inkscape:cy="114.5"
     inkscape:window-width="2560"
     inkscape:window-height="1368"
     inkscape:window-x="0"
     inkscape:window-y="0"
     inkscape:window-maximized="1"
     inkscape:current-layer="layer1" />
  <defs
     id="defs1">
    <linearGradient
       id="swatch7">
      <stop
         style="stop-color:#84daff;stop-opacity:1;"
         offset="0"
         id="stop9" />
    </linearGradient>
    <inkscape:path-effect
       effect="fillet_chamfer"
       id="path-effect1"
       is_visible="true"
       lpeversion="1"
       nodesatellites_param="F,0,0,1,0,0,0,1 @ F,0,0,1,0,0,0,1 @ F,0,0,1,0,0,0,1 @ F,0,0,1,0,0,0,1"
       radius="0"
       unit="px"
       method="auto"
       mode="F"
       chamfer_steps="1"
       flexible="false"
       use_knot_distance="true"
       apply_no_radius="true"
       apply_with_radius="true"
       only_selected="false"
       hide_knots="false" />
  </defs>
  <g
     inkscape:label="Layer 1"
     inkscape:groupmode="layer"
     id="layer1"
     style="display:inline">
    <rect
       style="opacity:1;fill:#00a72b;fill-opacity:1;fill-rule:nonzero;stroke:#000000;stroke-width:0.5;stroke-dasharray:none;stroke-opacity:1"
       id="rect1"
       width="236"
       height="236"
       x="10"
       y="10"
       sodipodi:type="rect"
       rx="30"
       ry="30" />
    <path
       style="fill:#ffffff;fill-opacity:1"
       d="m 198.70422,224.58423 c -2.15959,-0.54079 -42.93382,-14.21742 -47.94884,-16.08316 -4.2035,-1.56383 -5.52313,-2.33935 -7.19858,-4.23047 -3.54169,-3.99759 -10.23995,-14.47288 -14.72305,-23.02512 -2.37232,-4.52558 -4.39981,-8.14182 -4.50554,-8.03609 -0.10572,0.10572 1.04289,5.34183 2.55247,11.6358 1.50959,6.29397 2.7447,11.77734 2.7447,12.18528 0,0.53387 -1.20488,0.22078 -4.30013,-1.11743 -5.23134,-2.26173 -12.72618,-4.20989 -19.26794,-5.00839 -8.500313,-1.03757 -22.427127,-0.68208 -31.901634,0.81431 l -2.10292,0.33213 4.989144,-5.61305 c 5.561723,-6.25723 9.273349,-11.5624 10.370924,-14.82356 1.116708,-3.31801 0.778504,-14.23926 -0.813735,-26.27705 -2.250806,-17.01674 -1.765325,-23.30337 2.457955,-31.82877 1.578285,-3.18603 3.476921,-5.85587 6.373343,-8.96211 3.100931,-3.32556 3.555905,-3.98057 1.83214,-2.63767 -10.884702,8.47971 -15.809554,22.78935 -12.942009,37.60426 0.389325,2.01141 0.56322,3.65575 0.386432,3.65409 -0.176787,-0.002 -1.268629,-0.26602 -2.426315,-0.58746 l -2.104884,-0.58444 0.291125,-7.67491 c 0.597762,-15.75881 4.7942,-26.87824 13.598139,-36.031385 10.248855,-10.655373 27.260245,-16.56108 45.041775,-15.636787 13.77408,0.715984 27.42696,6.600671 38.95133,16.788858 l 3.54741,3.136104 -1.43809,2.93219 -1.43808,2.93219 -4.30465,-4.60091 c -4.80617,-5.136949 -9.05619,-8.363923 -14.80612,-11.242056 -4.13666,-2.070615 -11.25484,-4.168766 -13.97685,-4.119812 -1.10874,0.01994 -0.33238,0.377209 2.34126,1.077414 9.1563,2.397958 16.03725,6.308104 23.25517,13.214904 4.26761,4.08366 9.85772,11.47774 9.85772,13.03888 0,0.45327 -3.4433,1.86996 -9.24449,3.8035 -5.08447,1.69465 -9.15581,3.16986 -9.04743,3.27824 0.28962,0.28962 12.53179,-2.2753 16.93571,-3.54829 2.08496,-0.60267 4.19553,-1.09577 4.69014,-1.09577 1.62292,0 6.60765,13.94053 9.39591,26.27705 1.61573,7.14868 1.59157,6.65719 0.33772,6.8702 -0.89696,0.15238 -0.34635,1.69913 4.594,12.90531 3.0872,7.0027 5.61816,13.03694 5.62435,13.40942 0.008,0.48234 -1.15313,0.67725 -4.03478,0.67725 h -4.04604 l -1.32906,-4.46981 c -0.73098,-2.45839 -2.3069,-7.76121 -3.50205,-11.78404 -1.19514,-4.02282 -2.49441,-8.28008 -2.88727,-9.46056 l -0.71427,-2.14634 -11.31391,-2.0558 c -6.22265,-1.13068 -15.48734,-3.00817 -20.5882,-4.17219 -5.10087,-1.16402 -9.37895,-2.01283 -9.50685,-1.88625 -0.45273,0.44803 1.57344,3.99092 3.50529,6.12925 2.37083,2.62422 3.58808,3.10075 20.84578,8.16061 7.29593,2.13913 14.11865,4.18369 15.1616,4.54347 1.84334,0.63589 1.9446,0.82273 3.6267,6.69144 3.35033,11.68908 11.68453,57.37639 10.3945,56.98172 -0.11299,-0.0346 -0.69304,-0.18495 -1.28902,-0.33419 z M 176.71063,112.4234 C 163.98998,95.796321 147.45847,88.565452 128.17465,91.193807 c -4.93307,0.672371 -13.77674,3.494414 -18.68858,5.963588 -3.4553,1.73697 -9.823714,5.936325 -9.497412,6.262625 0.09672,0.0967 2.111252,-0.79949 4.476742,-1.99159 11.83667,-5.965159 26.68071,-8.335942 38.87678,-6.209125 10.43164,1.819125 19.72237,6.320695 28.74245,13.926365 5.21432,4.39669 5.79901,4.81096 4.626,3.27773 z M 34.81422,211.70296 c 8.979703,-13.30734 13.587812,-29.46814 12.006626,-42.10766 -0.345683,-2.76328 -1.726402,-8.90065 -3.068264,-13.63859 -1.341863,-4.73795 -2.43975,-8.96188 -2.43975,-9.38652 0,-0.4266 1.454594,-1.3997 3.250769,-2.17471 1.787923,-0.77145 3.250769,-1.56504 3.250769,-1.76354 0,-0.1985 -1.767606,-0.58525 -3.928013,-0.85944 l -3.928012,-0.49853 -0.954799,-5.41795 c -1.220725,-6.92693 -1.000996,-24.2835 0.387533,-30.6114 1.010955,-4.6072 2.41423,-9.279688 2.972128,-9.896304 0.206462,-0.228191 2.827822,-0.148096 5.825244,0.177989 9.153686,0.995814 9.493303,0.623155 2.199444,-2.413437 -3.501349,-1.457687 -6.366089,-2.71495 -6.366089,-2.793918 0,-0.07897 0.696544,-1.690102 1.547876,-3.580299 2.87844,-6.390951 8.305637,-14.740112 13.830983,-21.277488 l 1.341256,-1.586923 2.069492,1.422326 c 1.138221,0.782279 5.238992,3.769806 9.112825,6.638948 3.873833,2.869143 7.517348,5.47616 8.096701,5.793372 1.487305,0.814342 -1.049884,-2.299852 -8.613951,-10.572929 -3.440351,-3.762829 -6.255185,-7.055946 -6.255185,-7.318038 0,-0.262091 2.011413,-2.146206 4.469807,-4.186921 2.458394,-2.040714 4.905831,-4.075532 5.438748,-4.521817 0.891905,-0.746915 1.33343,-0.448833 5.553397,3.749213 2.521451,2.508352 4.584456,4.370242 4.584456,4.137533 0,-0.232709 -1.326251,-2.720214 -2.947225,-5.527789 l -2.947224,-5.104681 1.477622,-1.05216 c 4.354076,-3.100375 21.194396,-10.894618 23.539026,-10.894618 0.59176,0 2.54361,4.298643 6.64781,14.640759 3.19555,8.052417 5.87192,14.574272 5.94749,14.49301 0.0756,-0.08126 -0.33996,-2.585824 -0.9234,-5.565695 -2.5743,-13.148079 -4.77882,-25.383189 -4.60487,-25.557135 0.55854,-0.558539 10.72336,-2.384768 16.35194,-2.937819 10.61098,-1.042608 25.16595,-0.01953 34.48258,2.423801 5.83001,1.528947 9.10821,2.584851 9.37743,3.020454 0.15171,0.24547 -0.70731,3.063708 -1.90892,6.262751 -1.20162,3.199044 -2.10912,5.892078 -2.01668,5.984521 0.14578,0.145779 7.73449,-8.818516 8.58942,-10.146396 0.73715,-1.144946 14.36943,6.12277 21.79882,11.621505 5.20926,3.855545 10.1236,8.016923 10.1236,8.572487 0,0.215594 -1.27999,1.172162 -2.84442,2.125708 -4.18824,2.552795 -11.24224,7.67863 -11.24224,8.169245 0,0.233935 1.6457,-0.385284 3.65711,-1.376043 3.51575,-1.731746 12.91727,-5.183208 14.11866,-5.183208 0.69421,0 7.39303,8.036914 10.44596,12.532566 1.47841,2.177054 1.94545,3.26108 1.46671,3.404296 -0.38633,0.115569 -2.76155,0.630631 -5.27825,1.144582 -12.78135,2.610155 -24.13422,8.57918 -31.93341,16.789699 l -3.92742,4.134543 -2.53705,-2.362564 C 167.02038,86.437186 148.02269,79.95077 129.76726,81.4387 c -26.9278,2.194783 -44.250568,16.507857 -49.794803,41.14335 -0.737996,3.27924 -0.931429,7.30491 -1.002284,20.8591 -0.07665,14.6634 -0.230334,17.48346 -1.21054,22.21359 -3.812358,18.39709 -13.179425,32.49067 -27.937706,42.03476 -4.688126,3.03178 -13.01156,7.04063 -16.297263,7.84931 -1.550542,0.38163 -1.544759,0.36442 1.289556,-3.83585 z"
       id="path39" />
  </g>
</svg>
